<svg xmlns:dc="http://purl.org/dc/elements/1.1/" xmlns:cc="http://creativecommons.org/ns#" xmlns:rdf="http://www.w3.org/1999/02/22-rdf-syntax-ns#" xmlns:svg="http://www.w3.org/2000/svg" xmlns="http://www.w3.org/2000/svg" viewBox="0 0 20 20" fill="none"><metadata><rdf:RDF><cc:Work><dc:format>image/svg+xml</dc:format><dc:type rdf:resource="http://purl.org/dc/dcmitype/StillImage"/><dc:title>Pixel Art</dc:title><dc:creator><cc:Agent><dc:title>Plastic Jam</dc:title></cc:Agent></dc:creator><cc:license rdf:resource="https://github.com/dicebear/dicebear/blob/main/packages/%40dicebear/pixel-art/LICENSE"/></cc:Work></rdf:RDF></metadata><mask id="avatarsRadiusMask"><rect width="20" height="20" rx="0" ry="0" x="0" y="0" fill="#fff"/></mask><g mask="url(#avatarsRadiusMask)"><path d="M6 4V3h8v1h1v1h1v3h1v3h-1v2h-1v1h-1v1h-2v1h4v1h1v3H3v-3h1v-1h4v-1H6v-1H5v-1H4v-2H3V8h1V5h1V4h1Z" fill="rgba(182, 134, 85, 1)"/><path d="M6 3v1H5v1H4v3H3v3h1v2h1v1h1v1h8v-1h1v-1h1v-2h1V8h-1V5h-1V4h-1V3H6Z" fill="#fff" fill-opacity=".1"/><g/><g><g fill-rule="evenodd" clip-rule="evenodd"><path d="M5 8h2v1H5V8Zm7 0h2v1h-2V8Z" fill="#fff"/><path d="M7 8h1v1H7V8Zm7 0h1v1h-1V8Z" fill="#000"/></g></g><g><g fill-rule="evenodd" clip-rule="evenodd"><path d="M5 6h2v1H5V6Zm8 0h2v1h-2V6Z" fill="rgba(96, 58, 20, 1)"/><path d="M5 6h2v1H5V6Zm8 0h2v1h-2V6Z" fill="#000" fill-opacity=".1"/></g></g><g><path d="M9 13v1h1v-1H9Z" fill="rgba(222, 15, 13, 1)"/></g><g><path d="M2 15h2V5h12v10h2V4h-1V3h-1V2H4v1H3v1H2v11Z" fill="rgba(96, 58, 20, 1)"/></g><g/><g/><g><path d="M14 2H6v1H5v1H4v2h14V5h-2V4h-1V3h-1V2Z" fill="rgba(46, 30, 5, 1)"/><path d="M5 6h1V5h1V4h1V3H7v1H6v1H5v1Z" fill="#fff" fill-opacity=".2"/></g><g><path d="M5 16H4v1H3v3h14v-3h-1v-1h-3v1H7v-1H5Z" fill="rgba(0, 177, 89, 1)"/><path d="M10 20v-1h3v1h-3Z" fill="#fff" fill-opacity=".5"/><path fill-rule="evenodd" clip-rule="evenodd" d="M5 16H4v1H3v3h1v-1h1v-3Zm1 0h1v1h6v-1h1v2H6v-2Zm9 0h1v1h1v3h-1v-1h-1v-3Z" fill="#fff" fill-opacity=".8"/></g></g></svg>